<svg id="Capa_1" data-name="Capa 1" xmlns="http://www.w3.org/2000/svg" viewBox="0 0 1080 1080"><defs><style>.cls-1{fill:#262626;}.cls-2{fill:#f2f2f2;}</style></defs><circle class="cls-1" cx="540" cy="540" r="522.73"/><path class="cls-2" d="M366.94,346h89.71V666.07H613.77a75,75,0,0,1-75,75H366.94Z"/><path class="cls-2" d="M686.19,524.17V523c44.56-16.41,65.08-49.25,65.08-84.43,0-35.77-19.93-62.74-47.49-77.39-28.73-17-62.16-22.29-116.69-22.29-44.56,0-92.05,3.52-115.5,8.21V735.25c19.93,2.93,52.77,5.86,96.74,5.86,78.57,0,126.65-12.9,155.38-35.76,24.63-19.94,41-48.08,41-83.85C764.75,570.49,731.34,536.48,686.19,524.17Z"/></svg>