<svg width="11" height="10" viewBox="0 0 11 10" fill="none" xmlns="http://www.w3.org/2000/svg">
<path fill-rule="evenodd" clip-rule="evenodd" d="M8.98225 0.000417344C8.94499 0.001595 8.90782 0.00485529 8.87092 0.0101829H3.00178C2.64114 0.00508265 2.3057 0.194558 2.12389 0.506056C1.94209 0.817553 1.94209 1.20281 2.12389 1.51431C2.3057 1.82581 2.64114 2.01528 3.00178 2.01018H6.58772L0.709831 7.96323C0.448591 8.21405 0.343356 8.5865 0.434712 8.93694C0.526069 9.28738 0.799742 9.56106 1.15018 9.65241C1.50063 9.74377 1.87308 9.63854 2.12389 9.37729L8.00178 3.42425V7.01018C7.99668 7.37082 8.18616 7.70626 8.49765 7.88807C8.80915 8.06988 9.19441 8.06988 9.50591 7.88807C9.81741 7.70626 10.0069 7.37082 10.0018 7.01018V1.13714C10.0421 0.845724 9.95205 0.551346 9.75563 0.332342C9.5592 0.113339 9.27631 -0.00807317 8.98225 0.000417344Z" fill="black"/>
</svg>
