<?xml version="1.0" encoding="UTF-8"?>
<svg width="34px" height="34px" viewBox="0 0 34 34" version="1.1" xmlns="http://www.w3.org/2000/svg" xmlns:xlink="http://www.w3.org/1999/xlink">
    <title>Close</title>
    <g id="New-Main-Page" stroke="none" stroke-width="1" fill="none" fill-rule="evenodd">
        <g id="Artboard-Copy-7" transform="translate(-1120.000000, -480.000000)">
            <g id="Group-2" transform="translate(629.000000, 460.000000)">
                <g id="Close" transform="translate(491.000000, 20.000000)">
                    <path d="M13.1117142,12.0004848 C12.6612282,12.0010429 12.2559548,12.2745066 12.0866441,12.6921648 C11.9173334,13.109823 12.017717,13.5884662 12.3405472,13.9028114 L15.4338678,16.9976091 L12.3405472,20.092407 C12.0512171,20.3703297 11.9346687,20.7830279 12.0358505,21.1713388 C12.1370323,21.5596497 12.4401337,21.8628957 12.8282593,21.9641257 C13.2163849,22.0653557 13.6288861,21.9487515 13.906676,21.6592831 L17,18.5644857 L20.0933175,21.6592831 C20.3711065,21.9487555 20.7836097,22.0653628 21.1717378,21.9641333 C21.5598659,21.8629037 21.8629692,21.5596557 21.9641504,21.1713423 C22.0653316,20.7830289 21.9487799,20.3703287 21.6594457,20.092407 L18.5661254,16.9976091 L21.6594457,13.9028114 C21.9870118,13.5842516 22.0855034,13.0971734 21.9074619,12.6762775 C21.7294205,12.2553816 21.3113701,11.9870124 20.8547503,12.0004848 C20.5670133,12.0090625 20.2939167,12.1293755 20.0933175,12.3359348 L17,15.4307325 L13.906676,12.3359348 C13.6978968,12.1212182 13.4111268,12.0002098 13.1117142,12.0004848 Z" id="Path" fill="#000000" fill-rule="nonzero"></path>
                    <rect id="Rectangle" stroke-opacity="0.176136364" stroke="#979797" x="0.5" y="0.5" width="33" height="33" rx="16.5"></rect>
                </g>
            </g>
        </g>
    </g>
</svg>